<svg width="20" height="20" viewBox="0 0 20 20" fill="none" xmlns="http://www.w3.org/2000/svg">
<path d="M4.37842 0C4.54418 0 4.70315 0.065848 4.82036 0.183058C4.93757 0.300269 5.00342 0.45924 5.00342 0.625V1.25H15.0034V0.625C15.0034 0.45924 15.0693 0.300269 15.1865 0.183058C15.3037 0.065848 15.4627 0 15.6284 0C15.7942 0 15.9531 0.065848 16.0704 0.183058C16.1876 0.300269 16.2534 0.45924 16.2534 0.625V1.25H17.5034C18.1665 1.25 18.8023 1.51339 19.2712 1.98223C19.74 2.45107 20.0034 3.08696 20.0034 3.75V17.5C20.0034 18.163 19.74 18.7989 19.2712 19.2678C18.8023 19.7366 18.1665 20 17.5034 20H2.50342C1.84038 20 1.20449 19.7366 0.735651 19.2678C0.26681 18.7989 0.00341797 18.163 0.00341797 17.5V3.75C0.00341797 3.08696 0.26681 2.45107 0.735651 1.98223C1.20449 1.51339 1.84038 1.25 2.50342 1.25H3.75342V0.625C3.75342 0.45924 3.81927 0.300269 3.93648 0.183058C4.05369 0.065848 4.21266 0 4.37842 0V0ZM2.50342 2.5C2.1719 2.5 1.85395 2.6317 1.61953 2.86612C1.38511 3.10054 1.25342 3.41848 1.25342 3.75V5H18.7534V3.75C18.7534 3.41848 18.6217 3.10054 18.3873 2.86612C18.1529 2.6317 17.8349 2.5 17.5034 2.5H2.50342ZM18.7534 6.25H1.25342V17.5C1.25342 17.8315 1.38511 18.1495 1.61953 18.3839C1.85395 18.6183 2.1719 18.75 2.50342 18.75H17.5034C17.8349 18.75 18.1529 18.6183 18.3873 18.3839C18.6217 18.1495 18.7534 17.8315 18.7534 17.5V6.25Z" fill="#414141"/>
</svg>
