<?xml version="1.0" encoding="utf-8"?>
<!-- Generator: Adobe Illustrator 26.0.0, SVG Export Plug-In . SVG Version: 6.00 Build 0)  -->
<svg version="1.1" id="Capa_1" xmlns="http://www.w3.org/2000/svg" xmlns:xlink="http://www.w3.org/1999/xlink" x="0px" y="0px"
	 viewBox="0 0 1327 429" style="enable-background:new 0 0 1327 429;" xml:space="preserve">
<style type="text/css">
	.st0{fill:#FFFFFF;}
</style>
<g>
	<path class="st0" d="M398.4,371.2c-16.4,0-31.9-3.9-46.7-11.8c-14.8-7.9-26.7-19.6-35.9-35.1s-13.7-34.7-13.7-57.5v-140h36.1v139.1
		c0,21.8,6.3,39.4,19,52.7c12.7,13.3,28.8,20,48.4,20c13.5,0,25.7-3.1,36.6-9.4c10.9-6.3,19.6-14.8,26.2-25.8
		c6.6-10.9,9.9-23.6,9.9-38V126.7h36.1v240.6h-36.1v-37.5c-8.7,11.5-19.2,21.3-31.8,29.4C434,367.2,417.9,371.2,398.4,371.2z"/>
	<path class="st0" d="M648.1,371.2c-23.4,0-43.9-5.5-61.4-16.6c-17.5-11.1-31-26.1-40.7-45c-9.6-18.9-14.4-39.8-14.4-62.6
		c0-23.1,4.8-44,14.4-62.8c9.6-18.8,23.2-33.7,40.7-44.8c17.5-11.1,37.9-16.6,61.4-16.6c19.9,0,37,3.8,51.2,11.5
		c14.3,7.7,25.9,18.1,34.9,31.3V30.5h36.1v336.9h-36.1v-38.5c-9,12.8-20.6,23.1-34.9,30.8C685.1,367.3,668,371.2,648.1,371.2z
		 M652.9,338.5c18,0,33.1-4.2,45.5-12.5c12.3-8.3,21.7-19.5,28.2-33.5c6.4-14,9.6-29.1,9.6-45.5c0-16.7-3.2-31.9-9.6-45.7
		c-6.4-13.8-15.8-24.9-28.2-33.2c-12.3-8.3-27.5-12.5-45.5-12.5c-17.7,0-32.9,4.2-45.7,12.5c-12.8,8.4-22.6,19.4-29.4,33.2
		c-6.7,13.8-10.1,29-10.1,45.7c0,16.4,3.4,31.5,10.1,45.5c6.7,14,16.5,25.1,29.4,33.5C620,334.3,635.3,338.5,652.9,338.5z"/>
	<path class="st0" d="M904.2,371.2c-23.4,0-43.9-5.5-61.4-16.6c-17.5-11.1-31-26.1-40.7-45c-9.6-18.9-14.4-39.8-14.4-62.6
		c0-23.1,4.8-44,14.4-62.8c9.6-18.8,23.2-33.7,40.7-44.8c17.5-11.1,37.9-16.6,61.4-16.6c19.9,0,37,3.8,51.2,11.5
		c14.3,7.7,25.9,18.1,34.9,31.3V30.5h36.1v336.9h-36.1v-38.5c-9,12.8-20.6,23.1-34.9,30.8C941.1,367.3,924,371.2,904.2,371.2z
		 M909,338.5c18,0,33.1-4.2,45.5-12.5c12.3-8.3,21.7-19.5,28.2-33.5c6.4-14,9.6-29.1,9.6-45.5c0-16.7-3.2-31.9-9.6-45.7
		c-6.4-13.8-15.8-24.9-28.2-33.2c-12.3-8.3-27.5-12.5-45.5-12.5c-17.7,0-32.9,4.2-45.7,12.5c-12.8,8.4-22.6,19.4-29.4,33.2
		c-6.7,13.8-10.1,29-10.1,45.7c0,16.4,3.4,31.5,10.1,45.5c6.7,14,16.5,25.1,29.4,33.5C876.1,334.3,891.3,338.5,909,338.5z"/>
	<path class="st0" d="M1160.2,371.2c-23.4,0-43.9-5.5-61.4-16.6c-17.5-11.1-31-26.1-40.7-45c-9.6-18.9-14.4-39.8-14.4-62.6
		c0-23.1,4.8-44,14.4-62.8c9.6-18.8,23.2-33.7,40.7-44.8c17.5-11.1,37.9-16.6,61.4-16.6c19.9,0,37,3.8,51.2,11.5
		c14.3,7.7,25.9,18.1,34.9,31.3v-39h36.1v240.6h-36.1v-38.5c-9,12.8-20.6,23.1-34.9,30.8C1197.1,367.3,1180.1,371.2,1160.2,371.2z
		 M1165,338.5c18,0,33.1-4.2,45.5-12.5c12.3-8.3,21.7-19.5,28.2-33.5c6.4-14,9.6-29.1,9.6-45.5c0-16.7-3.2-31.9-9.6-45.7
		c-6.4-13.8-15.8-24.9-28.2-33.2c-12.3-8.3-27.5-12.5-45.5-12.5c-17.7,0-32.9,4.2-45.7,12.5c-12.8,8.4-22.6,19.4-29.4,33.2
		c-6.7,13.8-10.1,29-10.1,45.7c0,16.4,3.4,31.5,10.1,45.5c6.7,14,16.5,25.1,29.4,33.5C1132.1,334.3,1147.3,338.5,1165,338.5z"/>
</g>
<path class="st0" d="M237.2,29.8v136.5c-21.3-27.1-53.1-44.3-88.7-44.3c-64.1,0-116.1,55.8-116.1,124.6s52,124.6,116.1,124.6
	c2.4,0,4.9-0.1,7.3-0.3l84.8-3.1h30.8V29.8H237.2z M175.7,208.6l6.2,15.4l-16.2,6.5l-6.2-15.4L175.7,208.6z M112.3,234l6.2,15.4
	l-16.2,6.5L96,240.5L112.3,234z M201.7,274.8c-9.8,7.9-20.6,14.3-32.4,19c-11.9,4.8-24.1,7.6-36.6,8.6s-25.3,0.2-38.3-2.3L90,289.3
	c12.1,2.2,24.4,2.7,37.1,1.5s25.1-4.2,37.3-9.1s23.3-11.3,33.3-19.1c10-7.9,18.6-16.8,25.8-26.7l4.3,10.8
	C220.3,257.5,211.5,266.9,201.7,274.8z"/>
</svg>
