<?xml version="1.0" encoding="utf-8"?>
<!-- Generator: Adobe Illustrator 26.0.0, SVG Export Plug-In . SVG Version: 6.00 Build 0)  -->
<svg version="1.1" id="Capa_1" xmlns="http://www.w3.org/2000/svg" xmlns:xlink="http://www.w3.org/1999/xlink" x="0px" y="0px"
	 viewBox="0 0 1327 429" style="enable-background:new 0 0 1327 429;" xml:space="preserve">
<style type="text/css">
	.st0{fill:#ED1E79;}
</style>
<g>
	<path class="st0" d="M398.36,371.17c-16.36,0-31.93-3.93-46.68-11.79c-14.76-7.86-26.71-19.57-35.85-35.13
		c-9.14-15.56-13.72-34.73-13.72-57.51V126.7h36.09v139.08c0,21.82,6.33,39.39,19.01,52.7c12.67,13.32,28.79,19.97,48.37,19.97
		c13.48,0,25.66-3.13,36.57-9.38c10.9-6.26,19.65-14.84,26.23-25.75c6.57-10.9,9.87-23.58,9.87-38.02V126.7h36.09v240.63h-36.09
		v-37.54c-8.66,11.55-19.25,21.34-31.76,29.36C433.97,367.16,417.93,371.17,398.36,371.17z"/>
	<path class="st0" d="M648.13,371.17c-23.42,0-43.88-5.53-61.36-16.6c-17.49-11.07-31.04-26.06-40.67-45
		c-9.62-18.93-14.44-39.78-14.44-62.56c0-23.1,4.81-44.03,14.44-62.8c9.62-18.77,23.17-33.69,40.67-44.76
		c17.48-11.07,37.94-16.6,61.36-16.6c19.89,0,36.97,3.85,51.25,11.55c14.27,7.7,25.9,18.13,34.89,31.28V30.45h36.09v336.88h-36.09
		v-38.5c-8.99,12.84-20.62,23.1-34.89,30.8C685.1,367.32,668.02,371.17,648.13,371.17z M652.94,338.45
		c17.96,0,33.12-4.17,45.48-12.51c12.35-8.34,21.73-19.49,28.15-33.45c6.41-13.96,9.62-29.12,9.62-45.48
		c0-16.68-3.21-31.92-9.62-45.72c-6.42-13.79-15.81-24.86-28.15-33.21c-12.35-8.34-27.51-12.51-45.48-12.51
		c-17.65,0-32.89,4.17-45.72,12.51c-12.84,8.35-22.62,19.42-29.36,33.21c-6.74,13.8-10.11,29.04-10.11,45.72
		c0,16.36,3.37,31.52,10.11,45.48c6.74,13.96,16.52,25.11,29.36,33.45C620.05,334.28,635.29,338.45,652.94,338.45z"/>
	<path class="st0" d="M904.15,371.17c-23.42,0-43.88-5.53-61.36-16.6c-17.49-11.07-31.04-26.06-40.67-45
		c-9.62-18.93-14.44-39.78-14.44-62.56c0-23.1,4.81-44.03,14.44-62.8c9.62-18.77,23.17-33.69,40.67-44.76
		c17.48-11.07,37.94-16.6,61.36-16.6c19.89,0,36.97,3.85,51.25,11.55c14.27,7.7,25.91,18.13,34.89,31.28V30.45h36.09v336.88h-36.09
		v-38.5c-8.99,12.84-20.62,23.1-34.89,30.8C941.12,367.32,924.04,371.17,904.15,371.17z M908.96,338.45
		c17.96,0,33.12-4.17,45.48-12.51c12.35-8.34,21.73-19.49,28.15-33.45c6.41-13.96,9.62-29.12,9.62-45.48
		c0-16.68-3.21-31.92-9.62-45.72c-6.42-13.79-15.81-24.86-28.15-33.21c-12.35-8.34-27.51-12.51-45.48-12.51
		c-17.65,0-32.89,4.17-45.72,12.51c-12.84,8.35-22.62,19.42-29.36,33.21c-6.74,13.8-10.11,29.04-10.11,45.72
		c0,16.36,3.37,31.52,10.11,45.48c6.74,13.96,16.52,25.11,29.36,33.45C876.07,334.28,891.31,338.45,908.96,338.45z"/>
	<path class="st0" d="M1160.17,371.17c-23.42,0-43.88-5.53-61.36-16.6c-17.49-11.07-31.04-26.06-40.67-45
		c-9.62-18.93-14.44-39.78-14.44-62.56c0-23.1,4.81-44.03,14.44-62.8c9.62-18.77,23.18-33.69,40.67-44.76
		c17.48-11.07,37.94-16.6,61.36-16.6c19.89,0,36.97,3.85,51.25,11.55c14.27,7.7,25.91,18.13,34.89,31.28V126.7h36.09v240.63h-36.09
		v-38.5c-8.99,12.84-20.62,23.1-34.89,30.8C1197.14,367.32,1180.05,371.17,1160.17,371.17z M1164.98,338.45
		c17.96,0,33.12-4.17,45.48-12.51c12.35-8.34,21.73-19.49,28.15-33.45c6.41-13.96,9.62-29.12,9.62-45.48
		c0-16.68-3.21-31.92-9.62-45.72c-6.42-13.79-15.81-24.86-28.15-33.21c-12.35-8.34-27.51-12.51-45.48-12.51
		c-17.65,0-32.89,4.17-45.72,12.51c-12.84,8.35-22.62,19.42-29.36,33.21c-6.74,13.8-10.11,29.04-10.11,45.72
		c0,16.36,3.37,31.52,10.11,45.48c6.74,13.96,16.52,25.11,29.36,33.45C1132.09,334.28,1147.33,338.45,1164.98,338.45z"/>
</g>
<path class="st0" d="M237.24,29.77v136.49c-21.29-27.1-53.13-44.34-88.74-44.34c-64.09,0-116.05,55.78-116.05,124.58
	S84.41,371.09,148.5,371.09c2.45,0,4.88-0.11,7.3-0.27l84.82-3.14h30.75V29.77H237.24z M175.69,208.65l6.18,15.45l-16.25,6.5
	l-6.18-15.45L175.69,208.65z M112.29,234.02l6.18,15.45l-16.25,6.5l-6.18-15.45L112.29,234.02z M201.71,274.84
	c-9.83,7.93-20.63,14.26-32.42,18.98c-11.89,4.76-24.08,7.63-36.56,8.62c-12.48,0.99-25.26,0.22-38.35-2.3l-4.34-10.83
	c12.09,2.18,24.45,2.69,37.1,1.51c12.65-1.18,25.08-4.21,37.29-9.1c12.21-4.89,23.31-11.27,33.28-19.14
	c9.97-7.87,18.58-16.77,25.82-26.69l4.34,10.83C220.26,257.53,211.54,266.9,201.71,274.84z"/>
</svg>
