<svg width="25" height="20" viewBox="0 0 25 20" fill="none" xmlns="http://www.w3.org/2000/svg">
<path d="M1.5625 19.375C1.5625 19.375 0 19.375 0 17.8125C0 16.25 1.5625 11.5625 9.375 11.5625C17.1875 11.5625 18.75 16.25 18.75 17.8125C18.75 19.375 17.1875 19.375 17.1875 19.375H1.5625ZM9.375 10C10.6182 10 11.8105 9.50614 12.6896 8.62706C13.5686 7.74799 14.0625 6.5557 14.0625 5.3125C14.0625 4.0693 13.5686 2.87701 12.6896 1.99794C11.8105 1.11886 10.6182 0.625 9.375 0.625C8.1318 0.625 6.93951 1.11886 6.06044 1.99794C5.18136 2.87701 4.6875 4.0693 4.6875 5.3125C4.6875 6.5557 5.18136 7.74799 6.06044 8.62706C6.93951 9.50614 8.1318 10 9.375 10Z" fill="#414141"/>
<path fill-rule="evenodd" clip-rule="evenodd" d="M21.0938 5.3125C21.301 5.3125 21.4997 5.39481 21.6462 5.54132C21.7927 5.68784 21.875 5.88655 21.875 6.09375V8.4375H24.2188C24.426 8.4375 24.6247 8.51981 24.7712 8.66632C24.9177 8.81284 25 9.01155 25 9.21875C25 9.42595 24.9177 9.62466 24.7712 9.77118C24.6247 9.91769 24.426 10 24.2188 10H21.875V12.3438C21.875 12.551 21.7927 12.7497 21.6462 12.8962C21.4997 13.0427 21.301 13.125 21.0938 13.125C20.8865 13.125 20.6878 13.0427 20.5413 12.8962C20.3948 12.7497 20.3125 12.551 20.3125 12.3438V10H17.9688C17.7615 10 17.5628 9.91769 17.4163 9.77118C17.2698 9.62466 17.1875 9.42595 17.1875 9.21875C17.1875 9.01155 17.2698 8.81284 17.4163 8.66632C17.5628 8.51981 17.7615 8.4375 17.9688 8.4375H20.3125V6.09375C20.3125 5.88655 20.3948 5.68784 20.5413 5.54132C20.6878 5.39481 20.8865 5.3125 21.0938 5.3125Z" fill="#414141"/>
</svg>
