<svg width="25" height="20" viewBox="0 0 25 20" fill="none" xmlns="http://www.w3.org/2000/svg">
<path fill-rule="evenodd" clip-rule="evenodd" d="M24.7705 5.54084C24.8432 5.61341 24.901 5.69961 24.9403 5.79452C24.9797 5.88943 25 5.99118 25 6.09393C25 6.19669 24.9797 6.29843 24.9403 6.39334C24.901 6.48825 24.8432 6.57446 24.7705 6.64703L20.0833 11.3343C20.0107 11.407 19.9245 11.4647 19.8296 11.5041C19.7347 11.5435 19.6329 11.5638 19.5302 11.5638C19.4274 11.5638 19.3257 11.5435 19.2307 11.5041C19.1358 11.4647 19.0496 11.407 18.9771 11.3343L16.6334 8.99065C16.4868 8.84396 16.4043 8.645 16.4043 8.43755C16.4043 8.2301 16.4868 8.03115 16.6334 7.88446C16.7801 7.73777 16.9791 7.65536 17.1865 7.65536C17.394 7.65536 17.5929 7.73777 17.7396 7.88446L19.5302 9.67655L23.6643 5.54084C23.7369 5.46809 23.8231 5.41037 23.918 5.37098C24.0129 5.3316 24.1146 5.31133 24.2174 5.31133C24.3202 5.31133 24.4219 5.3316 24.5168 5.37098C24.6117 5.41037 24.6979 5.46809 24.7705 5.54084Z" fill="white"/>
<path d="M1.56241 19.3744C1.56241 19.3744 0 19.3744 0 17.812C0 16.2496 1.56241 11.5624 9.37448 11.5624C17.1865 11.5624 18.749 16.2496 18.749 17.812C18.749 19.3744 17.1865 19.3744 17.1865 19.3744H1.56241ZM9.37448 9.99996C10.6176 9.99996 11.8098 9.50613 12.6889 8.6271C13.5679 7.74808 14.0617 6.55586 14.0617 5.31273C14.0617 4.06959 13.5679 2.87738 12.6889 1.99835C11.8098 1.11932 10.6176 0.625488 9.37448 0.625488C8.13134 0.625488 6.93913 1.11932 6.0601 1.99835C5.18107 2.87738 4.68724 4.06959 4.68724 5.31273C4.68724 6.55586 5.18107 7.74808 6.0601 8.6271C6.93913 9.50613 8.13134 9.99996 9.37448 9.99996Z" fill="white"/>
</svg>
